<svg xmlns="http://www.w3.org/2000/svg" id="Fox_Logo_N" width="371.25" height="37.421" viewBox="0 0 371.25 37.421">
    <defs>
        <style>
            .cls-1{fill:#fff}.cls-2{fill:none;stroke:#fff;stroke-miterlimit:10;stroke-width:1.007px}
        </style>
    </defs>
    <g id="Fox_Lockup_N" transform="translate(-2.27 -3.06)">
        <path id="Path_1" d="M237.19 3.06l6.06 10.68 6.06-10.68z" class="cls-1"/>
        <path id="Path_2" d="M366.56 19.05l-2.6 4.58-2.6-4.58h-6.95l6.06 10.73-6.06 10.69 6.98.01 2.57-4.54 2.57 4.54 6.99-.01-6.07-10.69 6.07-10.73z" class="cls-1"/>
        <g id="Group_5">
            <path id="Path_3" d="M346.9 19.05a10.71 10.71 0 1 0 10.71 10.71 10.71 10.71 0 0 0-10.71-10.71m1.88 15.11a1.84 1.84 0 0 1-1.85 1.79 1.791 1.791 0 0 1-1.77-1.82v-8.77a1.869 1.869 0 0 1 1.77-1.9 1.937 1.937 0 0 1 1.85 1.9z" class="cls-1"/>
            <path id="Path_4" d="M329.27 40.47v-6.91h5.9v-5.87h-5.9v-2.8h7.23l-.39-5.85h-13.32v21.43z" class="cls-1"/>
            <path id="Path_5" d="M237.85 38.26c-.39-.84-.48-1.47-.48-4.67h2.1c0 2.78.06 3.24.3 3.77a2.318 2.318 0 0 0 2.37 1.29 2.4 2.4 0 0 0 2.4-1.23 5.779 5.779 0 0 0 .24-2.46 5.842 5.842 0 0 0-.33-2.69c-.45-1.02-1.56-1.53-3.08-2.16-1.65-.72-2.82-1.44-3.36-2.66a7.963 7.963 0 0 1-.45-3.47c0-1.92.09-2.46.42-3.15.6-1.38 1.95-2.13 3.98-2.13 2.1 0 3.35.75 3.98 2.13.36.81.45 1.41.45 4.46h-2.04c0-2.6-.03-3.08-.27-3.59a2.108 2.108 0 0 0-2.16-1.23 2.146 2.146 0 0 0-2.16 1.2 5.706 5.706 0 0 0-.18 2.22 6.305 6.305 0 0 0 .27 2.58c.45.96 1.56 1.41 3.08 2.07 1.68.72 2.9 1.47 3.47 2.69a8.417 8.417 0 0 1 .45 3.65c0 2.09-.09 2.64-.42 3.35-.63 1.41-2.13 2.22-4.37 2.22-2.27 0-3.61-.81-4.21-2.19" class="cls-1"/>
            <path id="Path_6" d="M248.93 35.72V19.01h2.04v16.62c0 1.98.72 2.94 2.63 2.94s2.67-.96 2.67-2.94V19.01h2.01v16.71c0 3.17-1.38 4.73-4.67 4.73s-4.68-1.56-4.68-4.73" class="cls-1"/>
            <path id="Path_7" d="M260.91 19.01h2.3l5.93 17.01V19.01h1.95v21.14h-2.28l-5.99-17.25v17.25h-1.91z" class="cls-1"/>
            <path id="Path_8" d="M273.84 19.01h4.22c2.55 0 4.19.96 5 2.76.48 1.11.63 2.1.63 7.82s-.15 6.71-.63 7.82c-.81 1.8-2.46 2.75-5 2.75h-4.22zm4.07 19.28c1.74 0 2.73-.6 3.23-1.77.39-.81.48-1.5.48-6.92 0-5.48-.09-6.17-.48-6.98-.51-1.17-1.5-1.77-3.23-1.77h-2.07v17.43h2.07z" class="cls-1"/>
            <path id="Path_9" d="M292.92 35.42h-5.48l-.87 4.73h-2.04l4.07-21.14h3.11l4.07 21.14h-2.01zm-.33-1.8l-2.4-12.94h-.06l-2.37 12.94z" class="cls-1"/>
            <path id="Path_10" d="M298.79 31.26l-4.23-12.25h2.07l3.14 9.88 3.15-9.88h2.07l-4.2 12.25v8.89h-2z" class="cls-1"/>
            <path id="Path_11" d="M305.85 38.26c-.39-.84-.48-1.47-.48-4.67h2.1c0 2.78.06 3.24.3 3.77a2.318 2.318 0 0 0 2.37 1.29 2.4 2.4 0 0 0 2.4-1.23 5.779 5.779 0 0 0 .24-2.46 5.843 5.843 0 0 0-.33-2.69c-.45-1.02-1.56-1.53-3.08-2.16-1.65-.72-2.82-1.44-3.36-2.66a7.963 7.963 0 0 1-.45-3.47c0-1.92.09-2.46.42-3.15.6-1.38 1.95-2.13 3.98-2.13 2.1 0 3.35.75 3.98 2.13.36.81.45 1.41.45 4.46h-2.04c0-2.6-.03-3.08-.27-3.59a2.108 2.108 0 0 0-2.16-1.23 2.146 2.146 0 0 0-2.16 1.2 5.706 5.706 0 0 0-.18 2.22 6.305 6.305 0 0 0 .27 2.58c.45.96 1.56 1.41 3.08 2.07 1.68.72 2.9 1.47 3.47 2.69a8.417 8.417 0 0 1 .45 3.65c0 2.09-.09 2.64-.42 3.35-.63 1.41-2.13 2.22-4.37 2.22-2.26 0-3.61-.81-4.21-2.19" class="cls-1"/>
        </g>
        <g id="Group_12">
            <g id="Group_6">
                <path id="Path_12" d="M78.96 5.24h2.79L78.49 18.6h-1.98l-1.32-7-1.28 7h-2L68.68 5.24h2.81l1.55 7.97 1.11-6.11h2.11l1.11 6.17z" class="cls-1"/>
                <path id="Path_13" d="M88.55 18.6l-.76-3.22h-3.22l-.72 3.22H81.1l3.69-13.36h2.79l3.69 13.36zm-3.45-5.47h2.19l-1.12-4.79z" class="cls-1"/>
                <path id="Path_14" d="M98.17 5.24v2.29h-2.54V18.6h-2.58V7.52h-2.54V5.24z" class="cls-1"/>
                <path id="Path_15" d="M98.58 11.91c0-4.27 2.02-6.9 5.06-6.9a4.8 4.8 0 0 1 4.23 2.72l-1.9 1.42c-.64-1.07-1.38-1.71-2.21-1.71-1.55 0-2.6 1.71-2.6 4.48s1.03 4.5 2.6 4.5c.81 0 1.57-.64 2.21-1.71l1.9 1.42a4.777 4.777 0 0 1-4.23 2.71c-3.05-.01-5.06-2.65-5.06-6.93z" class="cls-1"/>
                <path id="Path_16" d="M114.52 5.24h2.58V18.6h-2.58v-5.49h-2.81v5.49h-2.58V5.24h2.58v5.57h2.81z" class="cls-1"/>
                <path id="Path_17" d="M129 7.52h-3.92v3.38h3.1v2.27h-3.1v5.43h-2.58V5.24h6.5z" class="cls-1"/>
                <path id="Path_18" d="M129.72 11.93c0-4.17 1.98-6.92 4.93-6.92 2.93 0 4.89 2.75 4.89 6.92 0 4.13-1.96 6.9-4.89 6.9-2.96 0-4.93-2.77-4.93-6.9zm7.23 0c0-2.71-.89-4.5-2.33-4.5s-2.31 1.78-2.31 4.5c0 2.7.87 4.48 2.31 4.48s2.33-1.79 2.33-4.48z" class="cls-1"/>
                <path id="Path_19" d="M146.1 18.6l-1.94-4.83h-.45v4.83h-2.58V5.24h4.19c2.21 0 3.47 1.92 3.47 4.38 0 1.86-.78 3.43-2 3.94l2.25 5.04h-2.94zm-2.38-11.08v4.31h1.05c.97 0 1.44-.81 1.44-2.11 0-1.36-.48-2.19-1.36-2.19h-1.13z" class="cls-1"/>
            </g>
            <g id="Group_7">
                <path id="Line_1" d="M0 0L59.92 0" class="cls-2" transform="translate(2.27 11.71)"/>
            </g>
            <path id="Line_2" d="M0 0L59.92 0" class="cls-2" transform="translate(155.75 11.71)"/>
            <g id="Group_10">
                <g id="Group_8">
                    <path id="Path_20" d="M15.12 40.24h-2.66l-.56-8.03-1.82 6.36H8.06l-1.84-6.34-.58 8.01H2.98L4.2 26.88h2.5l2.37 8.05 2.31-8.05h2.52z" class="cls-1"/>
                    <path id="Path_21" d="M16.21 33.57c0-4.17 1.98-6.92 4.93-6.92 2.93 0 4.89 2.75 4.89 6.92 0 4.13-1.96 6.9-4.89 6.9-2.96 0-4.93-2.77-4.93-6.9zm7.23 0c0-2.71-.89-4.5-2.33-4.5s-2.31 1.78-2.31 4.5c0 2.7.87 4.48 2.31 4.48s2.33-1.79 2.33-4.48z" class="cls-1"/>
                    <path id="Path_22" d="M32.59 40.24l-1.94-4.83h-.45v4.83h-2.58V26.88h4.19c2.21 0 3.47 1.92 3.47 4.38 0 1.86-.78 3.43-2 3.94l2.25 5.04h-2.94zm-2.38-11.08v4.31h1.05c.97 0 1.44-.81 1.44-2.11 0-1.36-.48-2.19-1.36-2.19h-1.13z" class="cls-1"/>
                    <path id="Path_23" d="M39.59 37.95h4.13v2.29h-6.71V26.88h6.59v2.29h-4.01v3.34h3.51v2.33h-3.51v3.11z" class="cls-1"/>
                    <path id="Path_24" d="M48.14 33.55c0-4.27 2.02-6.9 5.06-6.9a4.807 4.807 0 0 1 4.23 2.71l-1.9 1.42c-.64-1.07-1.38-1.71-2.21-1.71-1.55 0-2.6 1.71-2.6 4.48s1.03 4.5 2.6 4.5c.81 0 1.57-.64 2.21-1.71l1.9 1.42a4.777 4.777 0 0 1-4.23 2.71c-3.04 0-5.06-2.64-5.06-6.92z" class="cls-1"/>
                    <path id="Path_25" d="M64.08 26.88h2.58v13.36h-2.58v-5.49h-2.81v5.49h-2.58V26.88h2.58v5.57h2.81z" class="cls-1"/>
                    <path id="Path_26" d="M71.37 37.95h4.13v2.29h-6.71V26.88h6.59v2.29h-4.01v3.34h3.51v2.33h-3.51z" class="cls-1"/>
                    <path id="Path_27" d="M82.11 40.24l-1.94-4.83h-.45v4.83h-2.58V26.88h4.19c2.21 0 3.47 1.92 3.47 4.38 0 1.86-.78 3.43-2 3.94l2.25 5.04h-2.94zm-2.38-11.08v4.31h1.05c.97 0 1.44-.81 1.44-2.11 0-1.36-.48-2.19-1.36-2.19h-1.13z" class="cls-1"/>
                    <path id="Path_28" d="M91.5 40.24l-1.94-4.83h-.45v4.83h-2.58V26.88h4.19c2.21 0 3.47 1.92 3.47 4.38 0 1.86-.78 3.43-2 3.94l2.25 5.04H91.5zm-2.39-11.08v4.31h1.05c.97 0 1.44-.81 1.44-2.11 0-1.36-.48-2.19-1.36-2.19h-1.13z" class="cls-1"/>
                    <path id="Path_29" d="M95.92 40.24V26.88h2.58v13.36h-2.58z" class="cls-1"/>
                    <path id="Path_30" d="M103.23 37.95h4.13v2.29h-6.71V26.88h6.59v2.29h-4.01v3.34h3.51v2.33h-3.51z" class="cls-1"/>
                    <path id="Path_31" d="M108.48 36.26h2.64c0 1.28.48 1.94 1.3 1.94.8 0 1.2-.64 1.2-1.49a1.914 1.914 0 0 0-1.26-1.82l-1.16-.6a4.38 4.38 0 0 1-2.66-3.96 3.491 3.491 0 0 1 3.72-3.68c2.28 0 3.61 1.49 3.61 4.13h-2.66c0-1.22-.43-1.84-1.07-1.84-.68 0-1.03.64-1.03 1.36a1.8 1.8 0 0 0 1.12 1.73l1.07.52c1.96 1.05 2.89 2.35 2.89 4.15a3.576 3.576 0 0 1-3.86 3.78c-2.43-.01-3.85-1.54-3.85-4.22z" class="cls-1"/>
                </g>
                <g id="Group_9">
                    <path id="Path_32" d="M144.73 40.24h-2.66l-.56-8.03-1.82 6.36h-2.02l-1.84-6.34-.58 8.01h-2.66l1.22-13.36h2.5l2.37 8.05 2.31-8.05h2.52z" class="cls-1"/>
                    <path id="Path_33" d="M145.81 33.57c0-4.17 1.98-6.92 4.93-6.92 2.93 0 4.89 2.75 4.89 6.92 0 4.13-1.96 6.9-4.89 6.9-2.95 0-4.93-2.77-4.93-6.9zm7.23 0c0-2.71-.89-4.5-2.33-4.5s-2.31 1.78-2.31 4.5c0 2.7.87 4.48 2.31 4.48s2.33-1.79 2.33-4.48z" class="cls-1"/>
                    <path id="Path_34" d="M162.2 40.24l-1.94-4.83h-.45v4.83h-2.58V26.88h4.19c2.21 0 3.47 1.92 3.47 4.38 0 1.86-.78 3.43-2 3.94l2.25 5.04h-2.94zm-2.39-11.08v4.31h1.05c.97 0 1.44-.81 1.44-2.11 0-1.36-.48-2.19-1.36-2.19h-1.13z" class="cls-1"/>
                    <path id="Path_35" d="M169.2 37.95h4.13v2.29h-6.71V26.88h6.59v2.29h-4.01v3.34h3.51v2.33h-3.51z" class="cls-1"/>
                    <path id="Path_36" d="M177.75 33.55c0-4.27 2.02-6.9 5.06-6.9a4.807 4.807 0 0 1 4.23 2.71l-1.9 1.42c-.64-1.07-1.38-1.71-2.21-1.71-1.55 0-2.6 1.71-2.6 4.48s1.03 4.5 2.6 4.5c.81 0 1.57-.64 2.21-1.71l1.9 1.42a4.777 4.777 0 0 1-4.23 2.71c-3.05 0-5.06-2.64-5.06-6.92z" class="cls-1"/>
                    <path id="Path_37" d="M194.6 40.24l-.76-3.22h-3.22l-.72 3.22h-2.75l3.69-13.36h2.79l3.68 13.36zm-3.45-5.47h2.19l-1.12-4.79z" class="cls-1"/>
                    <path id="Path_38" d="M197.56 36.26h2.64c0 1.28.48 1.94 1.3 1.94.79 0 1.2-.64 1.2-1.49a1.914 1.914 0 0 0-1.26-1.82l-1.16-.6a4.38 4.38 0 0 1-2.66-3.96 3.485 3.485 0 0 1 3.72-3.68c2.29 0 3.61 1.49 3.61 4.13h-2.66c0-1.22-.43-1.84-1.07-1.84-.68 0-1.03.64-1.03 1.36a1.8 1.8 0 0 0 1.12 1.73l1.07.52c1.96 1.05 2.89 2.35 2.89 4.15a3.571 3.571 0 0 1-3.86 3.78c-2.43-.01-3.85-1.54-3.85-4.22z" class="cls-1"/>
                    <path id="Path_39" d="M212.18 26.88h2.58v13.36h-2.58v-5.49h-2.81v5.49h-2.58V26.88h2.58v5.57h2.81z" class="cls-1"/>
                </g>
            </g>
            <g id="Group_11">
                <path id="Path_40" d="M121.92 33.04a2.489 2.489 0 1 1 4.9 0 2.489 2.489 0 1 1-4.9 0z" class="cls-1"/>
            </g>
        </g>
    </g>
</svg>
